<svg xmlns="http://www.w3.org/2000/svg" xml:space="preserve" xmlns:xlink="http://www.w3.org/1999/xlink" style="max-width: 100%;height: auto;" width="990" height="990" viewBox="0 0 990 990">
<defs><mask id="qrmask"><g fill="#ffffff"><g>
<g transform="translate(220,44) scale(3.7766666666667)"><rect width="6" height="6"/></g>
<g transform="translate(264,44) scale(3.7766666666667)"><rect width="6" height="6"/></g>
<g transform="translate(286,44) scale(3.7766666666667)"><rect width="6" height="6"/></g>
<g transform="translate(308,44) scale(3.7766666666667)"><rect width="6" height="6"/></g>
<g transform="translate(330,44) scale(3.7766666666667)"><rect width="6" height="6"/></g>
<g transform="translate(352,44) scale(3.7766666666667)"><rect width="6" height="6"/></g>
<g transform="translate(374,44) scale(3.7766666666667)"><rect width="6" height="6"/></g>
<g transform="translate(462,44) scale(3.7766666666667)"><rect width="6" height="6"/></g>
<g transform="translate(506,44) scale(3.7766666666667)"><rect width="6" height="6"/></g>
<g transform="translate(550,44) scale(3.7766666666667)"><rect width="6" height="6"/></g>
<g transform="translate(594,44) scale(3.7766666666667)"><rect width="6" height="6"/></g>
<g transform="translate(660,44) scale(3.7766666666667)"><rect width="6" height="6"/></g>
<g transform="translate(726,44) scale(3.7766666666667)"><rect width="6" height="6"/></g>
<g transform="translate(748,44) scale(3.7766666666667)"><rect width="6" height="6"/></g>
<g transform="translate(220,66) scale(3.7766666666667)"><rect width="6" height="6"/></g>
<g transform="translate(242,66) scale(3.7766666666667)"><rect width="6" height="6"/></g>
<g transform="translate(352,66) scale(3.7766666666667)"><rect width="6" height="6"/></g>
<g transform="translate(374,66) scale(3.7766666666667)"><rect width="6" height="6"/></g>
<g transform="translate(440,66) scale(3.7766666666667)"><rect width="6" height="6"/></g>
<g transform="translate(462,66) scale(3.7766666666667)"><rect width="6" height="6"/></g>
<g transform="translate(484,66) scale(3.7766666666667)"><rect width="6" height="6"/></g>
<g transform="translate(528,66) scale(3.7766666666667)"><rect width="6" height="6"/></g>
<g transform="translate(550,66) scale(3.7766666666667)"><rect width="6" height="6"/></g>
<g transform="translate(594,66) scale(3.7766666666667)"><rect width="6" height="6"/></g>
<g transform="translate(616,66) scale(3.7766666666667)"><rect width="6" height="6"/></g>
<g transform="translate(638,66) scale(3.7766666666667)"><rect width="6" height="6"/></g>
<g transform="translate(660,66) scale(3.7766666666667)"><rect width="6" height="6"/></g>
<g transform="translate(704,66) scale(3.7766666666667)"><rect width="6" height="6"/></g>
<g transform="translate(748,66) scale(3.7766666666667)"><rect width="6" height="6"/></g>
<g transform="translate(220,88) scale(3.7766666666667)"><rect width="6" height="6"/></g>
<g transform="translate(352,88) scale(3.7766666666667)"><rect width="6" height="6"/></g>
<g transform="translate(396,88) scale(3.7766666666667)"><rect width="6" height="6"/></g>
<g transform="translate(440,88) scale(3.7766666666667)"><rect width="6" height="6"/></g>
<g transform="translate(506,88) scale(3.7766666666667)"><rect width="6" height="6"/></g>
<g transform="translate(528,88) scale(3.7766666666667)"><rect width="6" height="6"/></g>
<g transform="translate(572,88) scale(3.7766666666667)"><rect width="6" height="6"/></g>
<g transform="translate(594,88) scale(3.7766666666667)"><rect width="6" height="6"/></g>
<g transform="translate(638,88) scale(3.7766666666667)"><rect width="6" height="6"/></g>
<g transform="translate(242,110) scale(3.7766666666667)"><rect width="6" height="6"/></g>
<g transform="translate(286,110) scale(3.7766666666667)"><rect width="6" height="6"/></g>
<g transform="translate(330,110) scale(3.7766666666667)"><rect width="6" height="6"/></g>
<g transform="translate(374,110) scale(3.7766666666667)"><rect width="6" height="6"/></g>
<g transform="translate(418,110) scale(3.7766666666667)"><rect width="6" height="6"/></g>
<g transform="translate(484,110) scale(3.7766666666667)"><rect width="6" height="6"/></g>
<g transform="translate(506,110) scale(3.7766666666667)"><rect width="6" height="6"/></g>
<g transform="translate(572,110) scale(3.7766666666667)"><rect width="6" height="6"/></g>
<g transform="translate(616,110) scale(3.7766666666667)"><rect width="6" height="6"/></g>
<g transform="translate(638,110) scale(3.7766666666667)"><rect width="6" height="6"/></g>
<g transform="translate(704,110) scale(3.7766666666667)"><rect width="6" height="6"/></g>
<g transform="translate(748,110) scale(3.7766666666667)"><rect width="6" height="6"/></g>
<g transform="translate(264,132) scale(3.7766666666667)"><rect width="6" height="6"/></g>
<g transform="translate(286,132) scale(3.7766666666667)"><rect width="6" height="6"/></g>
<g transform="translate(308,132) scale(3.7766666666667)"><rect width="6" height="6"/></g>
<g transform="translate(330,132) scale(3.7766666666667)"><rect width="6" height="6"/></g>
<g transform="translate(396,132) scale(3.7766666666667)"><rect width="6" height="6"/></g>
<g transform="translate(572,132) scale(3.7766666666667)"><rect width="6" height="6"/></g>
<g transform="translate(594,132) scale(3.7766666666667)"><rect width="6" height="6"/></g>
<g transform="translate(660,132) scale(3.7766666666667)"><rect width="6" height="6"/></g>
<g transform="translate(682,132) scale(3.7766666666667)"><rect width="6" height="6"/></g>
<g transform="translate(726,132) scale(3.7766666666667)"><rect width="6" height="6"/></g>
<g transform="translate(748,132) scale(3.7766666666667)"><rect width="6" height="6"/></g>
<g transform="translate(220,154) scale(3.7766666666667)"><rect width="6" height="6"/></g>
<g transform="translate(308,154) scale(3.7766666666667)"><rect width="6" height="6"/></g>
<g transform="translate(352,154) scale(3.7766666666667)"><rect width="6" height="6"/></g>
<g transform="translate(374,154) scale(3.7766666666667)"><rect width="6" height="6"/></g>
<g transform="translate(418,154) scale(3.7766666666667)"><rect width="6" height="6"/></g>
<g transform="translate(440,154) scale(3.7766666666667)"><rect width="6" height="6"/></g>
<g transform="translate(528,154) scale(3.7766666666667)"><rect width="6" height="6"/></g>
<g transform="translate(594,154) scale(3.7766666666667)"><rect width="6" height="6"/></g>
<g transform="translate(616,154) scale(3.7766666666667)"><rect width="6" height="6"/></g>
<g transform="translate(638,154) scale(3.7766666666667)"><rect width="6" height="6"/></g>
<g transform="translate(220,176) scale(3.7766666666667)"><rect width="6" height="6"/></g>
<g transform="translate(264,176) scale(3.7766666666667)"><rect width="6" height="6"/></g>
<g transform="translate(308,176) scale(3.7766666666667)"><rect width="6" height="6"/></g>
<g transform="translate(352,176) scale(3.7766666666667)"><rect width="6" height="6"/></g>
<g transform="translate(396,176) scale(3.7766666666667)"><rect width="6" height="6"/></g>
<g transform="translate(440,176) scale(3.7766666666667)"><rect width="6" height="6"/></g>
<g transform="translate(484,176) scale(3.7766666666667)"><rect width="6" height="6"/></g>
<g transform="translate(528,176) scale(3.7766666666667)"><rect width="6" height="6"/></g>
<g transform="translate(572,176) scale(3.7766666666667)"><rect width="6" height="6"/></g>
<g transform="translate(616,176) scale(3.7766666666667)"><rect width="6" height="6"/></g>
<g transform="translate(660,176) scale(3.7766666666667)"><rect width="6" height="6"/></g>
<g transform="translate(704,176) scale(3.7766666666667)"><rect width="6" height="6"/></g>
<g transform="translate(748,176) scale(3.7766666666667)"><rect width="6" height="6"/></g>
<g transform="translate(220,198) scale(3.7766666666667)"><rect width="6" height="6"/></g>
<g transform="translate(242,198) scale(3.7766666666667)"><rect width="6" height="6"/></g>
<g transform="translate(286,198) scale(3.7766666666667)"><rect width="6" height="6"/></g>
<g transform="translate(374,198) scale(3.7766666666667)"><rect width="6" height="6"/></g>
<g transform="translate(484,198) scale(3.7766666666667)"><rect width="6" height="6"/></g>
<g transform="translate(550,198) scale(3.7766666666667)"><rect width="6" height="6"/></g>
<g transform="translate(638,198) scale(3.7766666666667)"><rect width="6" height="6"/></g>
<g transform="translate(660,198) scale(3.7766666666667)"><rect width="6" height="6"/></g>
<g transform="translate(88,220) scale(3.7766666666667)"><rect width="6" height="6"/></g>
<g transform="translate(110,220) scale(3.7766666666667)"><rect width="6" height="6"/></g>
<g transform="translate(132,220) scale(3.7766666666667)"><rect width="6" height="6"/></g>
<g transform="translate(176,220) scale(3.7766666666667)"><rect width="6" height="6"/></g>
<g transform="translate(220,220) scale(3.7766666666667)"><rect width="6" height="6"/></g>
<g transform="translate(286,220) scale(3.7766666666667)"><rect width="6" height="6"/></g>
<g transform="translate(308,220) scale(3.7766666666667)"><rect width="6" height="6"/></g>
<g transform="translate(330,220) scale(3.7766666666667)"><rect width="6" height="6"/></g>
<g transform="translate(374,220) scale(3.7766666666667)"><rect width="6" height="6"/></g>
<g transform="translate(396,220) scale(3.7766666666667)"><rect width="6" height="6"/></g>
<g transform="translate(418,220) scale(3.7766666666667)"><rect width="6" height="6"/></g>
<g transform="translate(462,220) scale(3.7766666666667)"><rect width="6" height="6"/></g>
<g transform="translate(506,220) scale(3.7766666666667)"><rect width="6" height="6"/></g>
<g transform="translate(528,220) scale(3.7766666666667)"><rect width="6" height="6"/></g>
<g transform="translate(550,220) scale(3.7766666666667)"><rect width="6" height="6"/></g>
<g transform="translate(638,220) scale(3.7766666666667)"><rect width="6" height="6"/></g>
<g transform="translate(682,220) scale(3.7766666666667)"><rect width="6" height="6"/></g>
<g transform="translate(770,220) scale(3.7766666666667)"><rect width="6" height="6"/></g>
<g transform="translate(792,220) scale(3.7766666666667)"><rect width="6" height="6"/></g>
<g transform="translate(814,220) scale(3.7766666666667)"><rect width="6" height="6"/></g>
<g transform="translate(880,220) scale(3.7766666666667)"><rect width="6" height="6"/></g>
<g transform="translate(902,220) scale(3.7766666666667)"><rect width="6" height="6"/></g>
<g transform="translate(924,220) scale(3.7766666666667)"><rect width="6" height="6"/></g>
<g transform="translate(44,242) scale(3.7766666666667)"><rect width="6" height="6"/></g>
<g transform="translate(66,242) scale(3.7766666666667)"><rect width="6" height="6"/></g>
<g transform="translate(154,242) scale(3.7766666666667)"><rect width="6" height="6"/></g>
<g transform="translate(242,242) scale(3.7766666666667)"><rect width="6" height="6"/></g>
<g transform="translate(352,242) scale(3.7766666666667)"><rect width="6" height="6"/></g>
<g transform="translate(374,242) scale(3.7766666666667)"><rect width="6" height="6"/></g>
<g transform="translate(396,242) scale(3.7766666666667)"><rect width="6" height="6"/></g>
<g transform="translate(418,242) scale(3.7766666666667)"><rect width="6" height="6"/></g>
<g transform="translate(440,242) scale(3.7766666666667)"><rect width="6" height="6"/></g>
<g transform="translate(462,242) scale(3.7766666666667)"><rect width="6" height="6"/></g>
<g transform="translate(484,242) scale(3.7766666666667)"><rect width="6" height="6"/></g>
<g transform="translate(506,242) scale(3.7766666666667)"><rect width="6" height="6"/></g>
<g transform="translate(528,242) scale(3.7766666666667)"><rect width="6" height="6"/></g>
<g transform="translate(572,242) scale(3.7766666666667)"><rect width="6" height="6"/></g>
<g transform="translate(594,242) scale(3.7766666666667)"><rect width="6" height="6"/></g>
<g transform="translate(616,242) scale(3.7766666666667)"><rect width="6" height="6"/></g>
<g transform="translate(704,242) scale(3.7766666666667)"><rect width="6" height="6"/></g>
<g transform="translate(726,242) scale(3.7766666666667)"><rect width="6" height="6"/></g>
<g transform="translate(748,242) scale(3.7766666666667)"><rect width="6" height="6"/></g>
<g transform="translate(792,242) scale(3.7766666666667)"><rect width="6" height="6"/></g>
<g transform="translate(814,242) scale(3.7766666666667)"><rect width="6" height="6"/></g>
<g transform="translate(836,242) scale(3.7766666666667)"><rect width="6" height="6"/></g>
<g transform="translate(880,242) scale(3.7766666666667)"><rect width="6" height="6"/></g>
<g transform="translate(902,242) scale(3.7766666666667)"><rect width="6" height="6"/></g>
<g transform="translate(924,242) scale(3.7766666666667)"><rect width="6" height="6"/></g>
<g transform="translate(66,264) scale(3.7766666666667)"><rect width="6" height="6"/></g>
<g transform="translate(88,264) scale(3.7766666666667)"><rect width="6" height="6"/></g>
<g transform="translate(132,264) scale(3.7766666666667)"><rect width="6" height="6"/></g>
<g transform="translate(154,264) scale(3.7766666666667)"><rect width="6" height="6"/></g>
<g transform="translate(176,264) scale(3.7766666666667)"><rect width="6" height="6"/></g>
<g transform="translate(198,264) scale(3.7766666666667)"><rect width="6" height="6"/></g>
<g transform="translate(286,264) scale(3.7766666666667)"><rect width="6" height="6"/></g>
<g transform="translate(352,264) scale(3.7766666666667)"><rect width="6" height="6"/></g>
<g transform="translate(396,264) scale(3.7766666666667)"><rect width="6" height="6"/></g>
<g transform="translate(440,264) scale(3.7766666666667)"><rect width="6" height="6"/></g>
<g transform="translate(484,264) scale(3.7766666666667)"><rect width="6" height="6"/></g>
<g transform="translate(528,264) scale(3.7766666666667)"><rect width="6" height="6"/></g>
<g transform="translate(616,264) scale(3.7766666666667)"><rect width="6" height="6"/></g>
<g transform="translate(638,264) scale(3.7766666666667)"><rect width="6" height="6"/></g>
<g transform="translate(660,264) scale(3.7766666666667)"><rect width="6" height="6"/></g>
<g transform="translate(704,264) scale(3.7766666666667)"><rect width="6" height="6"/></g>
<g transform="translate(748,264) scale(3.7766666666667)"><rect width="6" height="6"/></g>
<g transform="translate(770,264) scale(3.7766666666667)"><rect width="6" height="6"/></g>
<g transform="translate(814,264) scale(3.7766666666667)"><rect width="6" height="6"/></g>
<g transform="translate(836,264) scale(3.7766666666667)"><rect width="6" height="6"/></g>
<g transform="translate(44,286) scale(3.7766666666667)"><rect width="6" height="6"/></g>
<g transform="translate(220,286) scale(3.7766666666667)"><rect width="6" height="6"/></g>
<g transform="translate(264,286) scale(3.7766666666667)"><rect width="6" height="6"/></g>
<g transform="translate(308,286) scale(3.7766666666667)"><rect width="6" height="6"/></g>
<g transform="translate(330,286) scale(3.7766666666667)"><rect width="6" height="6"/></g>
<g transform="translate(418,286) scale(3.7766666666667)"><rect width="6" height="6"/></g>
<g transform="translate(440,286) scale(3.7766666666667)"><rect width="6" height="6"/></g>
<g transform="translate(462,286) scale(3.7766666666667)"><rect width="6" height="6"/></g>
<g transform="translate(484,286) scale(3.7766666666667)"><rect width="6" height="6"/></g>
<g transform="translate(528,286) scale(3.7766666666667)"><rect width="6" height="6"/></g>
<g transform="translate(572,286) scale(3.7766666666667)"><rect width="6" height="6"/></g>
<g transform="translate(616,286) scale(3.7766666666667)"><rect width="6" height="6"/></g>
<g transform="translate(638,286) scale(3.7766666666667)"><rect width="6" height="6"/></g>
<g transform="translate(660,286) scale(3.7766666666667)"><rect width="6" height="6"/></g>
<g transform="translate(704,286) scale(3.7766666666667)"><rect width="6" height="6"/></g>
<g transform="translate(726,286) scale(3.7766666666667)"><rect width="6" height="6"/></g>
<g transform="translate(748,286) scale(3.7766666666667)"><rect width="6" height="6"/></g>
<g transform="translate(836,286) scale(3.7766666666667)"><rect width="6" height="6"/></g>
<g transform="translate(858,286) scale(3.7766666666667)"><rect width="6" height="6"/></g>
<g transform="translate(902,286) scale(3.7766666666667)"><rect width="6" height="6"/></g>
<g transform="translate(924,286) scale(3.7766666666667)"><rect width="6" height="6"/></g>
<g transform="translate(132,308) scale(3.7766666666667)"><rect width="6" height="6"/></g>
<g transform="translate(176,308) scale(3.7766666666667)"><rect width="6" height="6"/></g>
<g transform="translate(242,308) scale(3.7766666666667)"><rect width="6" height="6"/></g>
<g transform="translate(396,308) scale(3.7766666666667)"><rect width="6" height="6"/></g>
<g transform="translate(462,308) scale(3.7766666666667)"><rect width="6" height="6"/></g>
<g transform="translate(484,308) scale(3.7766666666667)"><rect width="6" height="6"/></g>
<g transform="translate(506,308) scale(3.7766666666667)"><rect width="6" height="6"/></g>
<g transform="translate(528,308) scale(3.7766666666667)"><rect width="6" height="6"/></g>
<g transform="translate(550,308) scale(3.7766666666667)"><rect width="6" height="6"/></g>
<g transform="translate(572,308) scale(3.7766666666667)"><rect width="6" height="6"/></g>
<g transform="translate(660,308) scale(3.7766666666667)"><rect width="6" height="6"/></g>
<g transform="translate(682,308) scale(3.7766666666667)"><rect width="6" height="6"/></g>
<g transform="translate(704,308) scale(3.7766666666667)"><rect width="6" height="6"/></g>
<g transform="translate(726,308) scale(3.7766666666667)"><rect width="6" height="6"/></g>
<g transform="translate(770,308) scale(3.7766666666667)"><rect width="6" height="6"/></g>
<g transform="translate(858,308) scale(3.7766666666667)"><rect width="6" height="6"/></g>
<g transform="translate(880,308) scale(3.7766666666667)"><rect width="6" height="6"/></g>
<g transform="translate(924,308) scale(3.7766666666667)"><rect width="6" height="6"/></g>
<g transform="translate(198,330) scale(3.7766666666667)"><rect width="6" height="6"/></g>
<g transform="translate(264,330) scale(3.7766666666667)"><rect width="6" height="6"/></g>
<g transform="translate(330,330) scale(3.7766666666667)"><rect width="6" height="6"/></g>
<g transform="translate(352,330) scale(3.7766666666667)"><rect width="6" height="6"/></g>
<g transform="translate(418,330) scale(3.7766666666667)"><rect width="6" height="6"/></g>
<g transform="translate(440,330) scale(3.7766666666667)"><rect width="6" height="6"/></g>
<g transform="translate(462,330) scale(3.7766666666667)"><rect width="6" height="6"/></g>
<g transform="translate(528,330) scale(3.7766666666667)"><rect width="6" height="6"/></g>
<g transform="translate(550,330) scale(3.7766666666667)"><rect width="6" height="6"/></g>
<g transform="translate(572,330) scale(3.7766666666667)"><rect width="6" height="6"/></g>
<g transform="translate(638,330) scale(3.7766666666667)"><rect width="6" height="6"/></g>
<g transform="translate(704,330) scale(3.7766666666667)"><rect width="6" height="6"/></g>
<g transform="translate(748,330) scale(3.7766666666667)"><rect width="6" height="6"/></g>
<g transform="translate(814,330) scale(3.7766666666667)"><rect width="6" height="6"/></g>
<g transform="translate(836,330) scale(3.7766666666667)"><rect width="6" height="6"/></g>
<g transform="translate(902,330) scale(3.7766666666667)"><rect width="6" height="6"/></g>
<g transform="translate(924,330) scale(3.7766666666667)"><rect width="6" height="6"/></g>
<g transform="translate(132,352) scale(3.7766666666667)"><rect width="6" height="6"/></g>
<g transform="translate(176,352) scale(3.7766666666667)"><rect width="6" height="6"/></g>
<g transform="translate(198,352) scale(3.7766666666667)"><rect width="6" height="6"/></g>
<g transform="translate(242,352) scale(3.7766666666667)"><rect width="6" height="6"/></g>
<g transform="translate(286,352) scale(3.7766666666667)"><rect width="6" height="6"/></g>
<g transform="translate(308,352) scale(3.7766666666667)"><rect width="6" height="6"/></g>
<g transform="translate(352,352) scale(3.7766666666667)"><rect width="6" height="6"/></g>
<g transform="translate(374,352) scale(3.7766666666667)"><rect width="6" height="6"/></g>
<g transform="translate(396,352) scale(3.7766666666667)"><rect width="6" height="6"/></g>
<g transform="translate(440,352) scale(3.7766666666667)"><rect width="6" height="6"/></g>
<g transform="translate(462,352) scale(3.7766666666667)"><rect width="6" height="6"/></g>
<g transform="translate(484,352) scale(3.7766666666667)"><rect width="6" height="6"/></g>
<g transform="translate(550,352) scale(3.7766666666667)"><rect width="6" height="6"/></g>
<g transform="translate(572,352) scale(3.7766666666667)"><rect width="6" height="6"/></g>
<g transform="translate(594,352) scale(3.7766666666667)"><rect width="6" height="6"/></g>
<g transform="translate(616,352) scale(3.7766666666667)"><rect width="6" height="6"/></g>
<g transform="translate(638,352) scale(3.7766666666667)"><rect width="6" height="6"/></g>
<g transform="translate(660,352) scale(3.7766666666667)"><rect width="6" height="6"/></g>
<g transform="translate(682,352) scale(3.7766666666667)"><rect width="6" height="6"/></g>
<g transform="translate(704,352) scale(3.7766666666667)"><rect width="6" height="6"/></g>
<g transform="translate(726,352) scale(3.7766666666667)"><rect width="6" height="6"/></g>
<g transform="translate(770,352) scale(3.7766666666667)"><rect width="6" height="6"/></g>
<g transform="translate(836,352) scale(3.7766666666667)"><rect width="6" height="6"/></g>
<g transform="translate(880,352) scale(3.7766666666667)"><rect width="6" height="6"/></g>
<g transform="translate(110,374) scale(3.7766666666667)"><rect width="6" height="6"/></g>
<g transform="translate(154,374) scale(3.7766666666667)"><rect width="6" height="6"/></g>
<g transform="translate(220,374) scale(3.7766666666667)"><rect width="6" height="6"/></g>
<g transform="translate(264,374) scale(3.7766666666667)"><rect width="6" height="6"/></g>
<g transform="translate(286,374) scale(3.7766666666667)"><rect width="6" height="6"/></g>
<g transform="translate(352,374) scale(3.7766666666667)"><rect width="6" height="6"/></g>
<g transform="translate(374,374) scale(3.7766666666667)"><rect width="6" height="6"/></g>
<g transform="translate(418,374) scale(3.7766666666667)"><rect width="6" height="6"/></g>
<g transform="translate(440,374) scale(3.7766666666667)"><rect width="6" height="6"/></g>
<g transform="translate(484,374) scale(3.7766666666667)"><rect width="6" height="6"/></g>
<g transform="translate(506,374) scale(3.7766666666667)"><rect width="6" height="6"/></g>
<g transform="translate(550,374) scale(3.7766666666667)"><rect width="6" height="6"/></g>
<g transform="translate(572,374) scale(3.7766666666667)"><rect width="6" height="6"/></g>
<g transform="translate(616,374) scale(3.7766666666667)"><rect width="6" height="6"/></g>
<g transform="translate(638,374) scale(3.7766666666667)"><rect width="6" height="6"/></g>
<g transform="translate(704,374) scale(3.7766666666667)"><rect width="6" height="6"/></g>
<g transform="translate(726,374) scale(3.7766666666667)"><rect width="6" height="6"/></g>
<g transform="translate(748,374) scale(3.7766666666667)"><rect width="6" height="6"/></g>
<g transform="translate(792,374) scale(3.7766666666667)"><rect width="6" height="6"/></g>
<g transform="translate(814,374) scale(3.7766666666667)"><rect width="6" height="6"/></g>
<g transform="translate(836,374) scale(3.7766666666667)"><rect width="6" height="6"/></g>
<g transform="translate(858,374) scale(3.7766666666667)"><rect width="6" height="6"/></g>
<g transform="translate(44,396) scale(3.7766666666667)"><rect width="6" height="6"/></g>
<g transform="translate(66,396) scale(3.7766666666667)"><rect width="6" height="6"/></g>
<g transform="translate(110,396) scale(3.7766666666667)"><rect width="6" height="6"/></g>
<g transform="translate(132,396) scale(3.7766666666667)"><rect width="6" height="6"/></g>
<g transform="translate(154,396) scale(3.7766666666667)"><rect width="6" height="6"/></g>
<g transform="translate(176,396) scale(3.7766666666667)"><rect width="6" height="6"/></g>
<g transform="translate(198,396) scale(3.7766666666667)"><rect width="6" height="6"/></g>
<g transform="translate(264,396) scale(3.7766666666667)"><rect width="6" height="6"/></g>
<g transform="translate(286,396) scale(3.7766666666667)"><rect width="6" height="6"/></g>
<g transform="translate(308,396) scale(3.7766666666667)"><rect width="6" height="6"/></g>
<g transform="translate(330,396) scale(3.7766666666667)"><rect width="6" height="6"/></g>
<g transform="translate(374,396) scale(3.7766666666667)"><rect width="6" height="6"/></g>
<g transform="translate(418,396) scale(3.7766666666667)"><rect width="6" height="6"/></g>
<g transform="translate(440,396) scale(3.7766666666667)"><rect width="6" height="6"/></g>
<g transform="translate(484,396) scale(3.7766666666667)"><rect width="6" height="6"/></g>
<g transform="translate(506,396) scale(3.7766666666667)"><rect width="6" height="6"/></g>
<g transform="translate(550,396) scale(3.7766666666667)"><rect width="6" height="6"/></g>
<g transform="translate(594,396) scale(3.7766666666667)"><rect width="6" height="6"/></g>
<g transform="translate(638,396) scale(3.7766666666667)"><rect width="6" height="6"/></g>
<g transform="translate(682,396) scale(3.7766666666667)"><rect width="6" height="6"/></g>
<g transform="translate(704,396) scale(3.7766666666667)"><rect width="6" height="6"/></g>
<g transform="translate(726,396) scale(3.7766666666667)"><rect width="6" height="6"/></g>
<g transform="translate(748,396) scale(3.7766666666667)"><rect width="6" height="6"/></g>
<g transform="translate(770,396) scale(3.7766666666667)"><rect width="6" height="6"/></g>
<g transform="translate(814,396) scale(3.7766666666667)"><rect width="6" height="6"/></g>
<g transform="translate(880,396) scale(3.7766666666667)"><rect width="6" height="6"/></g>
<g transform="translate(902,396) scale(3.7766666666667)"><rect width="6" height="6"/></g>
<g transform="translate(924,396) scale(3.7766666666667)"><rect width="6" height="6"/></g>
<g transform="translate(44,418) scale(3.7766666666667)"><rect width="6" height="6"/></g>
<g transform="translate(66,418) scale(3.7766666666667)"><rect width="6" height="6"/></g>
<g transform="translate(88,418) scale(3.7766666666667)"><rect width="6" height="6"/></g>
<g transform="translate(198,418) scale(3.7766666666667)"><rect width="6" height="6"/></g>
<g transform="translate(220,418) scale(3.7766666666667)"><rect width="6" height="6"/></g>
<g transform="translate(242,418) scale(3.7766666666667)"><rect width="6" height="6"/></g>
<g transform="translate(286,418) scale(3.7766666666667)"><rect width="6" height="6"/></g>
<g transform="translate(308,418) scale(3.7766666666667)"><rect width="6" height="6"/></g>
<g transform="translate(330,418) scale(3.7766666666667)"><rect width="6" height="6"/></g>
<g transform="translate(374,418) scale(3.7766666666667)"><rect width="6" height="6"/></g>
<g transform="translate(396,418) scale(3.7766666666667)"><rect width="6" height="6"/></g>
<g transform="translate(440,418) scale(3.7766666666667)"><rect width="6" height="6"/></g>
<g transform="translate(462,418) scale(3.7766666666667)"><rect width="6" height="6"/></g>
<g transform="translate(484,418) scale(3.7766666666667)"><rect width="6" height="6"/></g>
<g transform="translate(528,418) scale(3.7766666666667)"><rect width="6" height="6"/></g>
<g transform="translate(660,418) scale(3.7766666666667)"><rect width="6" height="6"/></g>
<g transform="translate(682,418) scale(3.7766666666667)"><rect width="6" height="6"/></g>
<g transform="translate(704,418) scale(3.7766666666667)"><rect width="6" height="6"/></g>
<g transform="translate(726,418) scale(3.7766666666667)"><rect width="6" height="6"/></g>
<g transform="translate(748,418) scale(3.7766666666667)"><rect width="6" height="6"/></g>
<g transform="translate(792,418) scale(3.7766666666667)"><rect width="6" height="6"/></g>
<g transform="translate(814,418) scale(3.7766666666667)"><rect width="6" height="6"/></g>
<g transform="translate(836,418) scale(3.7766666666667)"><rect width="6" height="6"/></g>
<g transform="translate(858,418) scale(3.7766666666667)"><rect width="6" height="6"/></g>
<g transform="translate(924,418) scale(3.7766666666667)"><rect width="6" height="6"/></g>
<g transform="translate(44,440) scale(3.7766666666667)"><rect width="6" height="6"/></g>
<g transform="translate(66,440) scale(3.7766666666667)"><rect width="6" height="6"/></g>
<g transform="translate(88,440) scale(3.7766666666667)"><rect width="6" height="6"/></g>
<g transform="translate(110,440) scale(3.7766666666667)"><rect width="6" height="6"/></g>
<g transform="translate(154,440) scale(3.7766666666667)"><rect width="6" height="6"/></g>
<g transform="translate(176,440) scale(3.7766666666667)"><rect width="6" height="6"/></g>
<g transform="translate(264,440) scale(3.7766666666667)"><rect width="6" height="6"/></g>
<g transform="translate(330,440) scale(3.7766666666667)"><rect width="6" height="6"/></g>
<g transform="translate(462,440) scale(3.7766666666667)"><rect width="6" height="6"/></g>
<g transform="translate(528,440) scale(3.7766666666667)"><rect width="6" height="6"/></g>
<g transform="translate(572,440) scale(3.7766666666667)"><rect width="6" height="6"/></g>
<g transform="translate(638,440) scale(3.7766666666667)"><rect width="6" height="6"/></g>
<g transform="translate(660,440) scale(3.7766666666667)"><rect width="6" height="6"/></g>
<g transform="translate(682,440) scale(3.7766666666667)"><rect width="6" height="6"/></g>
<g transform="translate(748,440) scale(3.7766666666667)"><rect width="6" height="6"/></g>
<g transform="translate(836,440) scale(3.7766666666667)"><rect width="6" height="6"/></g>
<g transform="translate(880,440) scale(3.7766666666667)"><rect width="6" height="6"/></g>
<g transform="translate(88,462) scale(3.7766666666667)"><rect width="6" height="6"/></g>
<g transform="translate(110,462) scale(3.7766666666667)"><rect width="6" height="6"/></g>
<g transform="translate(132,462) scale(3.7766666666667)"><rect width="6" height="6"/></g>
<g transform="translate(198,462) scale(3.7766666666667)"><rect width="6" height="6"/></g>
<g transform="translate(242,462) scale(3.7766666666667)"><rect width="6" height="6"/></g>
<g transform="translate(264,462) scale(3.7766666666667)"><rect width="6" height="6"/></g>
<g transform="translate(308,462) scale(3.7766666666667)"><rect width="6" height="6"/></g>
<g transform="translate(330,462) scale(3.7766666666667)"><rect width="6" height="6"/></g>
<g transform="translate(352,462) scale(3.7766666666667)"><rect width="6" height="6"/></g>
<g transform="translate(440,462) scale(3.7766666666667)"><rect width="6" height="6"/></g>
<g transform="translate(462,462) scale(3.7766666666667)"><rect width="6" height="6"/></g>
<g transform="translate(484,462) scale(3.7766666666667)"><rect width="6" height="6"/></g>
<g transform="translate(550,462) scale(3.7766666666667)"><rect width="6" height="6"/></g>
<g transform="translate(572,462) scale(3.7766666666667)"><rect width="6" height="6"/></g>
<g transform="translate(616,462) scale(3.7766666666667)"><rect width="6" height="6"/></g>
<g transform="translate(682,462) scale(3.7766666666667)"><rect width="6" height="6"/></g>
<g transform="translate(704,462) scale(3.7766666666667)"><rect width="6" height="6"/></g>
<g transform="translate(726,462) scale(3.7766666666667)"><rect width="6" height="6"/></g>
<g transform="translate(748,462) scale(3.7766666666667)"><rect width="6" height="6"/></g>
<g transform="translate(836,462) scale(3.7766666666667)"><rect width="6" height="6"/></g>
<g transform="translate(858,462) scale(3.7766666666667)"><rect width="6" height="6"/></g>
<g transform="translate(44,484) scale(3.7766666666667)"><rect width="6" height="6"/></g>
<g transform="translate(66,484) scale(3.7766666666667)"><rect width="6" height="6"/></g>
<g transform="translate(88,484) scale(3.7766666666667)"><rect width="6" height="6"/></g>
<g transform="translate(176,484) scale(3.7766666666667)"><rect width="6" height="6"/></g>
<g transform="translate(242,484) scale(3.7766666666667)"><rect width="6" height="6"/></g>
<g transform="translate(264,484) scale(3.7766666666667)"><rect width="6" height="6"/></g>
<g transform="translate(308,484) scale(3.7766666666667)"><rect width="6" height="6"/></g>
<g transform="translate(330,484) scale(3.7766666666667)"><rect width="6" height="6"/></g>
<g transform="translate(352,484) scale(3.7766666666667)"><rect width="6" height="6"/></g>
<g transform="translate(462,484) scale(3.7766666666667)"><rect width="6" height="6"/></g>
<g transform="translate(484,484) scale(3.7766666666667)"><rect width="6" height="6"/></g>
<g transform="translate(550,484) scale(3.7766666666667)"><rect width="6" height="6"/></g>
<g transform="translate(572,484) scale(3.7766666666667)"><rect width="6" height="6"/></g>
<g transform="translate(616,484) scale(3.7766666666667)"><rect width="6" height="6"/></g>
<g transform="translate(638,484) scale(3.7766666666667)"><rect width="6" height="6"/></g>
<g transform="translate(660,484) scale(3.7766666666667)"><rect width="6" height="6"/></g>
<g transform="translate(726,484) scale(3.7766666666667)"><rect width="6" height="6"/></g>
<g transform="translate(748,484) scale(3.7766666666667)"><rect width="6" height="6"/></g>
<g transform="translate(836,484) scale(3.7766666666667)"><rect width="6" height="6"/></g>
<g transform="translate(858,484) scale(3.7766666666667)"><rect width="6" height="6"/></g>
<g transform="translate(880,484) scale(3.7766666666667)"><rect width="6" height="6"/></g>
<g transform="translate(902,484) scale(3.7766666666667)"><rect width="6" height="6"/></g>
<g transform="translate(44,506) scale(3.7766666666667)"><rect width="6" height="6"/></g>
<g transform="translate(66,506) scale(3.7766666666667)"><rect width="6" height="6"/></g>
<g transform="translate(88,506) scale(3.7766666666667)"><rect width="6" height="6"/></g>
<g transform="translate(264,506) scale(3.7766666666667)"><rect width="6" height="6"/></g>
<g transform="translate(286,506) scale(3.7766666666667)"><rect width="6" height="6"/></g>
<g transform="translate(308,506) scale(3.7766666666667)"><rect width="6" height="6"/></g>
<g transform="translate(330,506) scale(3.7766666666667)"><rect width="6" height="6"/></g>
<g transform="translate(374,506) scale(3.7766666666667)"><rect width="6" height="6"/></g>
<g transform="translate(418,506) scale(3.7766666666667)"><rect width="6" height="6"/></g>
<g transform="translate(462,506) scale(3.7766666666667)"><rect width="6" height="6"/></g>
<g transform="translate(484,506) scale(3.7766666666667)"><rect width="6" height="6"/></g>
<g transform="translate(550,506) scale(3.7766666666667)"><rect width="6" height="6"/></g>
<g transform="translate(572,506) scale(3.7766666666667)"><rect width="6" height="6"/></g>
<g transform="translate(660,506) scale(3.7766666666667)"><rect width="6" height="6"/></g>
<g transform="translate(704,506) scale(3.7766666666667)"><rect width="6" height="6"/></g>
<g transform="translate(726,506) scale(3.7766666666667)"><rect width="6" height="6"/></g>
<g transform="translate(748,506) scale(3.7766666666667)"><rect width="6" height="6"/></g>
<g transform="translate(770,506) scale(3.7766666666667)"><rect width="6" height="6"/></g>
<g transform="translate(792,506) scale(3.7766666666667)"><rect width="6" height="6"/></g>
<g transform="translate(814,506) scale(3.7766666666667)"><rect width="6" height="6"/></g>
<g transform="translate(858,506) scale(3.7766666666667)"><rect width="6" height="6"/></g>
<g transform="translate(902,506) scale(3.7766666666667)"><rect width="6" height="6"/></g>
<g transform="translate(924,506) scale(3.7766666666667)"><rect width="6" height="6"/></g>
<g transform="translate(88,528) scale(3.7766666666667)"><rect width="6" height="6"/></g>
<g transform="translate(132,528) scale(3.7766666666667)"><rect width="6" height="6"/></g>
<g transform="translate(154,528) scale(3.7766666666667)"><rect width="6" height="6"/></g>
<g transform="translate(176,528) scale(3.7766666666667)"><rect width="6" height="6"/></g>
<g transform="translate(264,528) scale(3.7766666666667)"><rect width="6" height="6"/></g>
<g transform="translate(308,528) scale(3.7766666666667)"><rect width="6" height="6"/></g>
<g transform="translate(396,528) scale(3.7766666666667)"><rect width="6" height="6"/></g>
<g transform="translate(418,528) scale(3.7766666666667)"><rect width="6" height="6"/></g>
<g transform="translate(484,528) scale(3.7766666666667)"><rect width="6" height="6"/></g>
<g transform="translate(528,528) scale(3.7766666666667)"><rect width="6" height="6"/></g>
<g transform="translate(550,528) scale(3.7766666666667)"><rect width="6" height="6"/></g>
<g transform="translate(638,528) scale(3.7766666666667)"><rect width="6" height="6"/></g>
<g transform="translate(660,528) scale(3.7766666666667)"><rect width="6" height="6"/></g>
<g transform="translate(704,528) scale(3.7766666666667)"><rect width="6" height="6"/></g>
<g transform="translate(770,528) scale(3.7766666666667)"><rect width="6" height="6"/></g>
<g transform="translate(858,528) scale(3.7766666666667)"><rect width="6" height="6"/></g>
<g transform="translate(44,550) scale(3.7766666666667)"><rect width="6" height="6"/></g>
<g transform="translate(66,550) scale(3.7766666666667)"><rect width="6" height="6"/></g>
<g transform="translate(154,550) scale(3.7766666666667)"><rect width="6" height="6"/></g>
<g transform="translate(220,550) scale(3.7766666666667)"><rect width="6" height="6"/></g>
<g transform="translate(330,550) scale(3.7766666666667)"><rect width="6" height="6"/></g>
<g transform="translate(352,550) scale(3.7766666666667)"><rect width="6" height="6"/></g>
<g transform="translate(396,550) scale(3.7766666666667)"><rect width="6" height="6"/></g>
<g transform="translate(462,550) scale(3.7766666666667)"><rect width="6" height="6"/></g>
<g transform="translate(484,550) scale(3.7766666666667)"><rect width="6" height="6"/></g>
<g transform="translate(506,550) scale(3.7766666666667)"><rect width="6" height="6"/></g>
<g transform="translate(550,550) scale(3.7766666666667)"><rect width="6" height="6"/></g>
<g transform="translate(594,550) scale(3.7766666666667)"><rect width="6" height="6"/></g>
<g transform="translate(616,550) scale(3.7766666666667)"><rect width="6" height="6"/></g>
<g transform="translate(638,550) scale(3.7766666666667)"><rect width="6" height="6"/></g>
<g transform="translate(660,550) scale(3.7766666666667)"><rect width="6" height="6"/></g>
<g transform="translate(770,550) scale(3.7766666666667)"><rect width="6" height="6"/></g>
<g transform="translate(814,550) scale(3.7766666666667)"><rect width="6" height="6"/></g>
<g transform="translate(858,550) scale(3.7766666666667)"><rect width="6" height="6"/></g>
<g transform="translate(924,550) scale(3.7766666666667)"><rect width="6" height="6"/></g>
<g transform="translate(88,572) scale(3.7766666666667)"><rect width="6" height="6"/></g>
<g transform="translate(154,572) scale(3.7766666666667)"><rect width="6" height="6"/></g>
<g transform="translate(176,572) scale(3.7766666666667)"><rect width="6" height="6"/></g>
<g transform="translate(220,572) scale(3.7766666666667)"><rect width="6" height="6"/></g>
<g transform="translate(264,572) scale(3.7766666666667)"><rect width="6" height="6"/></g>
<g transform="translate(352,572) scale(3.7766666666667)"><rect width="6" height="6"/></g>
<g transform="translate(418,572) scale(3.7766666666667)"><rect width="6" height="6"/></g>
<g transform="translate(440,572) scale(3.7766666666667)"><rect width="6" height="6"/></g>
<g transform="translate(528,572) scale(3.7766666666667)"><rect width="6" height="6"/></g>
<g transform="translate(572,572) scale(3.7766666666667)"><rect width="6" height="6"/></g>
<g transform="translate(638,572) scale(3.7766666666667)"><rect width="6" height="6"/></g>
<g transform="translate(682,572) scale(3.7766666666667)"><rect width="6" height="6"/></g>
<g transform="translate(880,572) scale(3.7766666666667)"><rect width="6" height="6"/></g>
<g transform="translate(924,572) scale(3.7766666666667)"><rect width="6" height="6"/></g>
<g transform="translate(110,594) scale(3.7766666666667)"><rect width="6" height="6"/></g>
<g transform="translate(132,594) scale(3.7766666666667)"><rect width="6" height="6"/></g>
<g transform="translate(198,594) scale(3.7766666666667)"><rect width="6" height="6"/></g>
<g transform="translate(264,594) scale(3.7766666666667)"><rect width="6" height="6"/></g>
<g transform="translate(286,594) scale(3.7766666666667)"><rect width="6" height="6"/></g>
<g transform="translate(330,594) scale(3.7766666666667)"><rect width="6" height="6"/></g>
<g transform="translate(374,594) scale(3.7766666666667)"><rect width="6" height="6"/></g>
<g transform="translate(396,594) scale(3.7766666666667)"><rect width="6" height="6"/></g>
<g transform="translate(418,594) scale(3.7766666666667)"><rect width="6" height="6"/></g>
<g transform="translate(440,594) scale(3.7766666666667)"><rect width="6" height="6"/></g>
<g transform="translate(462,594) scale(3.7766666666667)"><rect width="6" height="6"/></g>
<g transform="translate(484,594) scale(3.7766666666667)"><rect width="6" height="6"/></g>
<g transform="translate(528,594) scale(3.7766666666667)"><rect width="6" height="6"/></g>
<g transform="translate(572,594) scale(3.7766666666667)"><rect width="6" height="6"/></g>
<g transform="translate(594,594) scale(3.7766666666667)"><rect width="6" height="6"/></g>
<g transform="translate(616,594) scale(3.7766666666667)"><rect width="6" height="6"/></g>
<g transform="translate(682,594) scale(3.7766666666667)"><rect width="6" height="6"/></g>
<g transform="translate(704,594) scale(3.7766666666667)"><rect width="6" height="6"/></g>
<g transform="translate(726,594) scale(3.7766666666667)"><rect width="6" height="6"/></g>
<g transform="translate(792,594) scale(3.7766666666667)"><rect width="6" height="6"/></g>
<g transform="translate(814,594) scale(3.7766666666667)"><rect width="6" height="6"/></g>
<g transform="translate(836,594) scale(3.7766666666667)"><rect width="6" height="6"/></g>
<g transform="translate(858,594) scale(3.7766666666667)"><rect width="6" height="6"/></g>
<g transform="translate(902,594) scale(3.7766666666667)"><rect width="6" height="6"/></g>
<g transform="translate(924,594) scale(3.7766666666667)"><rect width="6" height="6"/></g>
<g transform="translate(44,616) scale(3.7766666666667)"><rect width="6" height="6"/></g>
<g transform="translate(88,616) scale(3.7766666666667)"><rect width="6" height="6"/></g>
<g transform="translate(176,616) scale(3.7766666666667)"><rect width="6" height="6"/></g>
<g transform="translate(220,616) scale(3.7766666666667)"><rect width="6" height="6"/></g>
<g transform="translate(264,616) scale(3.7766666666667)"><rect width="6" height="6"/></g>
<g transform="translate(330,616) scale(3.7766666666667)"><rect width="6" height="6"/></g>
<g transform="translate(352,616) scale(3.7766666666667)"><rect width="6" height="6"/></g>
<g transform="translate(396,616) scale(3.7766666666667)"><rect width="6" height="6"/></g>
<g transform="translate(462,616) scale(3.7766666666667)"><rect width="6" height="6"/></g>
<g transform="translate(484,616) scale(3.7766666666667)"><rect width="6" height="6"/></g>
<g transform="translate(506,616) scale(3.7766666666667)"><rect width="6" height="6"/></g>
<g transform="translate(550,616) scale(3.7766666666667)"><rect width="6" height="6"/></g>
<g transform="translate(572,616) scale(3.7766666666667)"><rect width="6" height="6"/></g>
<g transform="translate(594,616) scale(3.7766666666667)"><rect width="6" height="6"/></g>
<g transform="translate(638,616) scale(3.7766666666667)"><rect width="6" height="6"/></g>
<g transform="translate(682,616) scale(3.7766666666667)"><rect width="6" height="6"/></g>
<g transform="translate(748,616) scale(3.7766666666667)"><rect width="6" height="6"/></g>
<g transform="translate(792,616) scale(3.7766666666667)"><rect width="6" height="6"/></g>
<g transform="translate(44,638) scale(3.7766666666667)"><rect width="6" height="6"/></g>
<g transform="translate(66,638) scale(3.7766666666667)"><rect width="6" height="6"/></g>
<g transform="translate(110,638) scale(3.7766666666667)"><rect width="6" height="6"/></g>
<g transform="translate(220,638) scale(3.7766666666667)"><rect width="6" height="6"/></g>
<g transform="translate(264,638) scale(3.7766666666667)"><rect width="6" height="6"/></g>
<g transform="translate(308,638) scale(3.7766666666667)"><rect width="6" height="6"/></g>
<g transform="translate(374,638) scale(3.7766666666667)"><rect width="6" height="6"/></g>
<g transform="translate(396,638) scale(3.7766666666667)"><rect width="6" height="6"/></g>
<g transform="translate(418,638) scale(3.7766666666667)"><rect width="6" height="6"/></g>
<g transform="translate(440,638) scale(3.7766666666667)"><rect width="6" height="6"/></g>
<g transform="translate(462,638) scale(3.7766666666667)"><rect width="6" height="6"/></g>
<g transform="translate(506,638) scale(3.7766666666667)"><rect width="6" height="6"/></g>
<g transform="translate(528,638) scale(3.7766666666667)"><rect width="6" height="6"/></g>
<g transform="translate(550,638) scale(3.7766666666667)"><rect width="6" height="6"/></g>
<g transform="translate(572,638) scale(3.7766666666667)"><rect width="6" height="6"/></g>
<g transform="translate(594,638) scale(3.7766666666667)"><rect width="6" height="6"/></g>
<g transform="translate(660,638) scale(3.7766666666667)"><rect width="6" height="6"/></g>
<g transform="translate(704,638) scale(3.7766666666667)"><rect width="6" height="6"/></g>
<g transform="translate(726,638) scale(3.7766666666667)"><rect width="6" height="6"/></g>
<g transform="translate(748,638) scale(3.7766666666667)"><rect width="6" height="6"/></g>
<g transform="translate(770,638) scale(3.7766666666667)"><rect width="6" height="6"/></g>
<g transform="translate(792,638) scale(3.7766666666667)"><rect width="6" height="6"/></g>
<g transform="translate(814,638) scale(3.7766666666667)"><rect width="6" height="6"/></g>
<g transform="translate(858,638) scale(3.7766666666667)"><rect width="6" height="6"/></g>
<g transform="translate(902,638) scale(3.7766666666667)"><rect width="6" height="6"/></g>
<g transform="translate(924,638) scale(3.7766666666667)"><rect width="6" height="6"/></g>
<g transform="translate(110,660) scale(3.7766666666667)"><rect width="6" height="6"/></g>
<g transform="translate(176,660) scale(3.7766666666667)"><rect width="6" height="6"/></g>
<g transform="translate(198,660) scale(3.7766666666667)"><rect width="6" height="6"/></g>
<g transform="translate(286,660) scale(3.7766666666667)"><rect width="6" height="6"/></g>
<g transform="translate(308,660) scale(3.7766666666667)"><rect width="6" height="6"/></g>
<g transform="translate(352,660) scale(3.7766666666667)"><rect width="6" height="6"/></g>
<g transform="translate(374,660) scale(3.7766666666667)"><rect width="6" height="6"/></g>
<g transform="translate(418,660) scale(3.7766666666667)"><rect width="6" height="6"/></g>
<g transform="translate(594,660) scale(3.7766666666667)"><rect width="6" height="6"/></g>
<g transform="translate(616,660) scale(3.7766666666667)"><rect width="6" height="6"/></g>
<g transform="translate(682,660) scale(3.7766666666667)"><rect width="6" height="6"/></g>
<g transform="translate(726,660) scale(3.7766666666667)"><rect width="6" height="6"/></g>
<g transform="translate(748,660) scale(3.7766666666667)"><rect width="6" height="6"/></g>
<g transform="translate(792,660) scale(3.7766666666667)"><rect width="6" height="6"/></g>
<g transform="translate(858,660) scale(3.7766666666667)"><rect width="6" height="6"/></g>
<g transform="translate(880,660) scale(3.7766666666667)"><rect width="6" height="6"/></g>
<g transform="translate(924,660) scale(3.7766666666667)"><rect width="6" height="6"/></g>
<g transform="translate(44,682) scale(3.7766666666667)"><rect width="6" height="6"/></g>
<g transform="translate(66,682) scale(3.7766666666667)"><rect width="6" height="6"/></g>
<g transform="translate(88,682) scale(3.7766666666667)"><rect width="6" height="6"/></g>
<g transform="translate(198,682) scale(3.7766666666667)"><rect width="6" height="6"/></g>
<g transform="translate(264,682) scale(3.7766666666667)"><rect width="6" height="6"/></g>
<g transform="translate(286,682) scale(3.7766666666667)"><rect width="6" height="6"/></g>
<g transform="translate(308,682) scale(3.7766666666667)"><rect width="6" height="6"/></g>
<g transform="translate(330,682) scale(3.7766666666667)"><rect width="6" height="6"/></g>
<g transform="translate(374,682) scale(3.7766666666667)"><rect width="6" height="6"/></g>
<g transform="translate(396,682) scale(3.7766666666667)"><rect width="6" height="6"/></g>
<g transform="translate(462,682) scale(3.7766666666667)"><rect width="6" height="6"/></g>
<g transform="translate(484,682) scale(3.7766666666667)"><rect width="6" height="6"/></g>
<g transform="translate(528,682) scale(3.7766666666667)"><rect width="6" height="6"/></g>
<g transform="translate(550,682) scale(3.7766666666667)"><rect width="6" height="6"/></g>
<g transform="translate(638,682) scale(3.7766666666667)"><rect width="6" height="6"/></g>
<g transform="translate(660,682) scale(3.7766666666667)"><rect width="6" height="6"/></g>
<g transform="translate(682,682) scale(3.7766666666667)"><rect width="6" height="6"/></g>
<g transform="translate(704,682) scale(3.7766666666667)"><rect width="6" height="6"/></g>
<g transform="translate(770,682) scale(3.7766666666667)"><rect width="6" height="6"/></g>
<g transform="translate(814,682) scale(3.7766666666667)"><rect width="6" height="6"/></g>
<g transform="translate(836,682) scale(3.7766666666667)"><rect width="6" height="6"/></g>
<g transform="translate(902,682) scale(3.7766666666667)"><rect width="6" height="6"/></g>
<g transform="translate(924,682) scale(3.7766666666667)"><rect width="6" height="6"/></g>
<g transform="translate(44,704) scale(3.7766666666667)"><rect width="6" height="6"/></g>
<g transform="translate(88,704) scale(3.7766666666667)"><rect width="6" height="6"/></g>
<g transform="translate(132,704) scale(3.7766666666667)"><rect width="6" height="6"/></g>
<g transform="translate(176,704) scale(3.7766666666667)"><rect width="6" height="6"/></g>
<g transform="translate(198,704) scale(3.7766666666667)"><rect width="6" height="6"/></g>
<g transform="translate(264,704) scale(3.7766666666667)"><rect width="6" height="6"/></g>
<g transform="translate(330,704) scale(3.7766666666667)"><rect width="6" height="6"/></g>
<g transform="translate(396,704) scale(3.7766666666667)"><rect width="6" height="6"/></g>
<g transform="translate(462,704) scale(3.7766666666667)"><rect width="6" height="6"/></g>
<g transform="translate(506,704) scale(3.7766666666667)"><rect width="6" height="6"/></g>
<g transform="translate(528,704) scale(3.7766666666667)"><rect width="6" height="6"/></g>
<g transform="translate(550,704) scale(3.7766666666667)"><rect width="6" height="6"/></g>
<g transform="translate(594,704) scale(3.7766666666667)"><rect width="6" height="6"/></g>
<g transform="translate(748,704) scale(3.7766666666667)"><rect width="6" height="6"/></g>
<g transform="translate(770,704) scale(3.7766666666667)"><rect width="6" height="6"/></g>
<g transform="translate(792,704) scale(3.7766666666667)"><rect width="6" height="6"/></g>
<g transform="translate(814,704) scale(3.7766666666667)"><rect width="6" height="6"/></g>
<g transform="translate(858,704) scale(3.7766666666667)"><rect width="6" height="6"/></g>
<g transform="translate(880,704) scale(3.7766666666667)"><rect width="6" height="6"/></g>
<g transform="translate(44,726) scale(3.7766666666667)"><rect width="6" height="6"/></g>
<g transform="translate(88,726) scale(3.7766666666667)"><rect width="6" height="6"/></g>
<g transform="translate(132,726) scale(3.7766666666667)"><rect width="6" height="6"/></g>
<g transform="translate(154,726) scale(3.7766666666667)"><rect width="6" height="6"/></g>
<g transform="translate(198,726) scale(3.7766666666667)"><rect width="6" height="6"/></g>
<g transform="translate(220,726) scale(3.7766666666667)"><rect width="6" height="6"/></g>
<g transform="translate(286,726) scale(3.7766666666667)"><rect width="6" height="6"/></g>
<g transform="translate(308,726) scale(3.7766666666667)"><rect width="6" height="6"/></g>
<g transform="translate(396,726) scale(3.7766666666667)"><rect width="6" height="6"/></g>
<g transform="translate(418,726) scale(3.7766666666667)"><rect width="6" height="6"/></g>
<g transform="translate(528,726) scale(3.7766666666667)"><rect width="6" height="6"/></g>
<g transform="translate(550,726) scale(3.7766666666667)"><rect width="6" height="6"/></g>
<g transform="translate(616,726) scale(3.7766666666667)"><rect width="6" height="6"/></g>
<g transform="translate(660,726) scale(3.7766666666667)"><rect width="6" height="6"/></g>
<g transform="translate(770,726) scale(3.7766666666667)"><rect width="6" height="6"/></g>
<g transform="translate(792,726) scale(3.7766666666667)"><rect width="6" height="6"/></g>
<g transform="translate(814,726) scale(3.7766666666667)"><rect width="6" height="6"/></g>
<g transform="translate(858,726) scale(3.7766666666667)"><rect width="6" height="6"/></g>
<g transform="translate(902,726) scale(3.7766666666667)"><rect width="6" height="6"/></g>
<g transform="translate(44,748) scale(3.7766666666667)"><rect width="6" height="6"/></g>
<g transform="translate(110,748) scale(3.7766666666667)"><rect width="6" height="6"/></g>
<g transform="translate(176,748) scale(3.7766666666667)"><rect width="6" height="6"/></g>
<g transform="translate(198,748) scale(3.7766666666667)"><rect width="6" height="6"/></g>
<g transform="translate(220,748) scale(3.7766666666667)"><rect width="6" height="6"/></g>
<g transform="translate(242,748) scale(3.7766666666667)"><rect width="6" height="6"/></g>
<g transform="translate(264,748) scale(3.7766666666667)"><rect width="6" height="6"/></g>
<g transform="translate(286,748) scale(3.7766666666667)"><rect width="6" height="6"/></g>
<g transform="translate(330,748) scale(3.7766666666667)"><rect width="6" height="6"/></g>
<g transform="translate(352,748) scale(3.7766666666667)"><rect width="6" height="6"/></g>
<g transform="translate(374,748) scale(3.7766666666667)"><rect width="6" height="6"/></g>
<g transform="translate(396,748) scale(3.7766666666667)"><rect width="6" height="6"/></g>
<g transform="translate(440,748) scale(3.7766666666667)"><rect width="6" height="6"/></g>
<g transform="translate(550,748) scale(3.7766666666667)"><rect width="6" height="6"/></g>
<g transform="translate(594,748) scale(3.7766666666667)"><rect width="6" height="6"/></g>
<g transform="translate(616,748) scale(3.7766666666667)"><rect width="6" height="6"/></g>
<g transform="translate(682,748) scale(3.7766666666667)"><rect width="6" height="6"/></g>
<g transform="translate(748,748) scale(3.7766666666667)"><rect width="6" height="6"/></g>
<g transform="translate(770,748) scale(3.7766666666667)"><rect width="6" height="6"/></g>
<g transform="translate(792,748) scale(3.7766666666667)"><rect width="6" height="6"/></g>
<g transform="translate(814,748) scale(3.7766666666667)"><rect width="6" height="6"/></g>
<g transform="translate(836,748) scale(3.7766666666667)"><rect width="6" height="6"/></g>
<g transform="translate(880,748) scale(3.7766666666667)"><rect width="6" height="6"/></g>
<g transform="translate(924,748) scale(3.7766666666667)"><rect width="6" height="6"/></g>
<g transform="translate(220,770) scale(3.7766666666667)"><rect width="6" height="6"/></g>
<g transform="translate(242,770) scale(3.7766666666667)"><rect width="6" height="6"/></g>
<g transform="translate(286,770) scale(3.7766666666667)"><rect width="6" height="6"/></g>
<g transform="translate(330,770) scale(3.7766666666667)"><rect width="6" height="6"/></g>
<g transform="translate(396,770) scale(3.7766666666667)"><rect width="6" height="6"/></g>
<g transform="translate(462,770) scale(3.7766666666667)"><rect width="6" height="6"/></g>
<g transform="translate(528,770) scale(3.7766666666667)"><rect width="6" height="6"/></g>
<g transform="translate(572,770) scale(3.7766666666667)"><rect width="6" height="6"/></g>
<g transform="translate(594,770) scale(3.7766666666667)"><rect width="6" height="6"/></g>
<g transform="translate(616,770) scale(3.7766666666667)"><rect width="6" height="6"/></g>
<g transform="translate(660,770) scale(3.7766666666667)"><rect width="6" height="6"/></g>
<g transform="translate(748,770) scale(3.7766666666667)"><rect width="6" height="6"/></g>
<g transform="translate(836,770) scale(3.7766666666667)"><rect width="6" height="6"/></g>
<g transform="translate(880,770) scale(3.7766666666667)"><rect width="6" height="6"/></g>
<g transform="translate(924,770) scale(3.7766666666667)"><rect width="6" height="6"/></g>
<g transform="translate(264,792) scale(3.7766666666667)"><rect width="6" height="6"/></g>
<g transform="translate(286,792) scale(3.7766666666667)"><rect width="6" height="6"/></g>
<g transform="translate(352,792) scale(3.7766666666667)"><rect width="6" height="6"/></g>
<g transform="translate(374,792) scale(3.7766666666667)"><rect width="6" height="6"/></g>
<g transform="translate(418,792) scale(3.7766666666667)"><rect width="6" height="6"/></g>
<g transform="translate(440,792) scale(3.7766666666667)"><rect width="6" height="6"/></g>
<g transform="translate(462,792) scale(3.7766666666667)"><rect width="6" height="6"/></g>
<g transform="translate(506,792) scale(3.7766666666667)"><rect width="6" height="6"/></g>
<g transform="translate(528,792) scale(3.7766666666667)"><rect width="6" height="6"/></g>
<g transform="translate(594,792) scale(3.7766666666667)"><rect width="6" height="6"/></g>
<g transform="translate(638,792) scale(3.7766666666667)"><rect width="6" height="6"/></g>
<g transform="translate(660,792) scale(3.7766666666667)"><rect width="6" height="6"/></g>
<g transform="translate(704,792) scale(3.7766666666667)"><rect width="6" height="6"/></g>
<g transform="translate(726,792) scale(3.7766666666667)"><rect width="6" height="6"/></g>
<g transform="translate(748,792) scale(3.7766666666667)"><rect width="6" height="6"/></g>
<g transform="translate(792,792) scale(3.7766666666667)"><rect width="6" height="6"/></g>
<g transform="translate(836,792) scale(3.7766666666667)"><rect width="6" height="6"/></g>
<g transform="translate(858,792) scale(3.7766666666667)"><rect width="6" height="6"/></g>
<g transform="translate(242,814) scale(3.7766666666667)"><rect width="6" height="6"/></g>
<g transform="translate(352,814) scale(3.7766666666667)"><rect width="6" height="6"/></g>
<g transform="translate(396,814) scale(3.7766666666667)"><rect width="6" height="6"/></g>
<g transform="translate(462,814) scale(3.7766666666667)"><rect width="6" height="6"/></g>
<g transform="translate(550,814) scale(3.7766666666667)"><rect width="6" height="6"/></g>
<g transform="translate(594,814) scale(3.7766666666667)"><rect width="6" height="6"/></g>
<g transform="translate(748,814) scale(3.7766666666667)"><rect width="6" height="6"/></g>
<g transform="translate(836,814) scale(3.7766666666667)"><rect width="6" height="6"/></g>
<g transform="translate(220,836) scale(3.7766666666667)"><rect width="6" height="6"/></g>
<g transform="translate(242,836) scale(3.7766666666667)"><rect width="6" height="6"/></g>
<g transform="translate(264,836) scale(3.7766666666667)"><rect width="6" height="6"/></g>
<g transform="translate(330,836) scale(3.7766666666667)"><rect width="6" height="6"/></g>
<g transform="translate(352,836) scale(3.7766666666667)"><rect width="6" height="6"/></g>
<g transform="translate(396,836) scale(3.7766666666667)"><rect width="6" height="6"/></g>
<g transform="translate(418,836) scale(3.7766666666667)"><rect width="6" height="6"/></g>
<g transform="translate(462,836) scale(3.7766666666667)"><rect width="6" height="6"/></g>
<g transform="translate(484,836) scale(3.7766666666667)"><rect width="6" height="6"/></g>
<g transform="translate(528,836) scale(3.7766666666667)"><rect width="6" height="6"/></g>
<g transform="translate(572,836) scale(3.7766666666667)"><rect width="6" height="6"/></g>
<g transform="translate(616,836) scale(3.7766666666667)"><rect width="6" height="6"/></g>
<g transform="translate(638,836) scale(3.7766666666667)"><rect width="6" height="6"/></g>
<g transform="translate(704,836) scale(3.7766666666667)"><rect width="6" height="6"/></g>
<g transform="translate(748,836) scale(3.7766666666667)"><rect width="6" height="6"/></g>
<g transform="translate(770,836) scale(3.7766666666667)"><rect width="6" height="6"/></g>
<g transform="translate(792,836) scale(3.7766666666667)"><rect width="6" height="6"/></g>
<g transform="translate(814,836) scale(3.7766666666667)"><rect width="6" height="6"/></g>
<g transform="translate(836,836) scale(3.7766666666667)"><rect width="6" height="6"/></g>
<g transform="translate(880,836) scale(3.7766666666667)"><rect width="6" height="6"/></g>
<g transform="translate(924,836) scale(3.7766666666667)"><rect width="6" height="6"/></g>
<g transform="translate(220,858) scale(3.7766666666667)"><rect width="6" height="6"/></g>
<g transform="translate(264,858) scale(3.7766666666667)"><rect width="6" height="6"/></g>
<g transform="translate(286,858) scale(3.7766666666667)"><rect width="6" height="6"/></g>
<g transform="translate(374,858) scale(3.7766666666667)"><rect width="6" height="6"/></g>
<g transform="translate(418,858) scale(3.7766666666667)"><rect width="6" height="6"/></g>
<g transform="translate(462,858) scale(3.7766666666667)"><rect width="6" height="6"/></g>
<g transform="translate(484,858) scale(3.7766666666667)"><rect width="6" height="6"/></g>
<g transform="translate(506,858) scale(3.7766666666667)"><rect width="6" height="6"/></g>
<g transform="translate(550,858) scale(3.7766666666667)"><rect width="6" height="6"/></g>
<g transform="translate(572,858) scale(3.7766666666667)"><rect width="6" height="6"/></g>
<g transform="translate(594,858) scale(3.7766666666667)"><rect width="6" height="6"/></g>
<g transform="translate(616,858) scale(3.7766666666667)"><rect width="6" height="6"/></g>
<g transform="translate(660,858) scale(3.7766666666667)"><rect width="6" height="6"/></g>
<g transform="translate(682,858) scale(3.7766666666667)"><rect width="6" height="6"/></g>
<g transform="translate(770,858) scale(3.7766666666667)"><rect width="6" height="6"/></g>
<g transform="translate(814,858) scale(3.7766666666667)"><rect width="6" height="6"/></g>
<g transform="translate(858,858) scale(3.7766666666667)"><rect width="6" height="6"/></g>
<g transform="translate(902,858) scale(3.7766666666667)"><rect width="6" height="6"/></g>
<g transform="translate(924,858) scale(3.7766666666667)"><rect width="6" height="6"/></g>
<g transform="translate(220,880) scale(3.7766666666667)"><rect width="6" height="6"/></g>
<g transform="translate(286,880) scale(3.7766666666667)"><rect width="6" height="6"/></g>
<g transform="translate(374,880) scale(3.7766666666667)"><rect width="6" height="6"/></g>
<g transform="translate(396,880) scale(3.7766666666667)"><rect width="6" height="6"/></g>
<g transform="translate(418,880) scale(3.7766666666667)"><rect width="6" height="6"/></g>
<g transform="translate(484,880) scale(3.7766666666667)"><rect width="6" height="6"/></g>
<g transform="translate(506,880) scale(3.7766666666667)"><rect width="6" height="6"/></g>
<g transform="translate(550,880) scale(3.7766666666667)"><rect width="6" height="6"/></g>
<g transform="translate(638,880) scale(3.7766666666667)"><rect width="6" height="6"/></g>
<g transform="translate(704,880) scale(3.7766666666667)"><rect width="6" height="6"/></g>
<g transform="translate(770,880) scale(3.7766666666667)"><rect width="6" height="6"/></g>
<g transform="translate(792,880) scale(3.7766666666667)"><rect width="6" height="6"/></g>
<g transform="translate(814,880) scale(3.7766666666667)"><rect width="6" height="6"/></g>
<g transform="translate(836,880) scale(3.7766666666667)"><rect width="6" height="6"/></g>
<g transform="translate(902,880) scale(3.7766666666667)"><rect width="6" height="6"/></g>
<g transform="translate(242,902) scale(3.7766666666667)"><rect width="6" height="6"/></g>
<g transform="translate(264,902) scale(3.7766666666667)"><rect width="6" height="6"/></g>
<g transform="translate(396,902) scale(3.7766666666667)"><rect width="6" height="6"/></g>
<g transform="translate(506,902) scale(3.7766666666667)"><rect width="6" height="6"/></g>
<g transform="translate(572,902) scale(3.7766666666667)"><rect width="6" height="6"/></g>
<g transform="translate(616,902) scale(3.7766666666667)"><rect width="6" height="6"/></g>
<g transform="translate(660,902) scale(3.7766666666667)"><rect width="6" height="6"/></g>
<g transform="translate(726,902) scale(3.7766666666667)"><rect width="6" height="6"/></g>
<g transform="translate(748,902) scale(3.7766666666667)"><rect width="6" height="6"/></g>
<g transform="translate(770,902) scale(3.7766666666667)"><rect width="6" height="6"/></g>
<g transform="translate(836,902) scale(3.7766666666667)"><rect width="6" height="6"/></g>
<g transform="translate(902,902) scale(3.7766666666667)"><rect width="6" height="6"/></g>
<g transform="translate(308,924) scale(3.7766666666667)"><rect width="6" height="6"/></g>
<g transform="translate(330,924) scale(3.7766666666667)"><rect width="6" height="6"/></g>
<g transform="translate(352,924) scale(3.7766666666667)"><rect width="6" height="6"/></g>
<g transform="translate(374,924) scale(3.7766666666667)"><rect width="6" height="6"/></g>
<g transform="translate(418,924) scale(3.7766666666667)"><rect width="6" height="6"/></g>
<g transform="translate(506,924) scale(3.7766666666667)"><rect width="6" height="6"/></g>
<g transform="translate(528,924) scale(3.7766666666667)"><rect width="6" height="6"/></g>
<g transform="translate(550,924) scale(3.7766666666667)"><rect width="6" height="6"/></g>
<g transform="translate(572,924) scale(3.7766666666667)"><rect width="6" height="6"/></g>
<g transform="translate(616,924) scale(3.7766666666667)"><rect width="6" height="6"/></g>
<g transform="translate(682,924) scale(3.7766666666667)"><rect width="6" height="6"/></g>
<g transform="translate(726,924) scale(3.7766666666667)"><rect width="6" height="6"/></g>
<g transform="translate(814,924) scale(3.7766666666667)"><rect width="6" height="6"/></g>
<g transform="translate(836,924) scale(3.7766666666667)"><rect width="6" height="6"/></g>
</g></g></mask></defs>
<rect width="990" height="990" fill="#ffffff" x="0" y="0" />
<rect x="0" y="0" width="990" height="990" mask="url(#qrmask)" fill="#000000" />
<g><g transform="translate(44,44)"  fill="#000000"><g transform="scale(11)"><path d="M0,0v14h14V0H0z M12,12H2V2h10V12z"/></g></g>
<g transform="translate(88,88)"  fill="#000000"><g transform="scale(11)"><rect width="6" height="6"/></g></g>
<g transform="translate(792,44)"  fill="#000000"><g transform="scale(11)"><path d="M0,0v14h14V0H0z M12,12H2V2h10V12z"/></g></g>
<g transform="translate(836,88)"  fill="#000000"><g transform="scale(11)"><rect width="6" height="6"/></g></g>
<g transform="translate(44,792)"  fill="#000000"><g transform="scale(11)"><path d="M0,0v14h14V0H0z M12,12H2V2h10V12z"/></g></g>
<g transform="translate(88,836)"  fill="#000000"><g transform="scale(11)"><rect width="6" height="6"/></g></g></g>
</svg>